<svg xmlns="http://www.w3.org/2000/svg" viewBox="0 0 48 32" fill="none">
  <path d="M15.3273 13.2L15.9559 13.9597H16.6902L16.2731 13.2H15.3273ZM10.5801 13.2L11.2087 13.9597H11.943L11.526 13.2H10.5801ZM7.20361 13.2L7.83218 13.9597H8.56654L8.14947 13.2H7.20361ZM1.60804 13.2L2.23661 13.9597H2.97097L2.5539 13.2H1.60804ZM0.835114 11.1112H1.87383L3.0368 12.761V11.1112H4.23599L5.0761 12.3582V11.1112H11.526L11.526 11.7889L11.3145 11.5194H7.31304L7.10151 11.7795V13.2H5.0761L4.37794 12.1418V13.2H2.65967L2.44814 12.8947H1.69249L1.47189 13.2H0.835114V11.1112ZM16.5865 12.3959V11.1112H20.1248L20.8105 11.8709V11.1112H24.1926L24.7415 11.8897V11.1112H31.4249V13.2H24.7415V12.5553L24.7415 12.5459L24.2981 13.2H20.8105V12.5553L20.3671 13.2H16.5865V12.3959ZM32.2651 11.1112H36.1512L36.7799 11.8709V11.1112H38.6048L39.2334 11.7984V11.1112H42.6099L43.5557 12.3864V11.1112H45.8151V13.2H43.5557V12.6194L43.1386 13.2H41.1079L40.6908 12.6194V13.2H36.8368L36.6253 12.8947H35.8696L35.6581 13.2H32.2651V11.1112Z" fill="#252F3E"/>
  <path d="M47.2855 13.7343V13.4177H46.9152V13.3894H47.8233V13.4177H47.453V13.7343H47.2855ZM48.5702 13.7343V13.3894H48.8068L48.9799 13.6306L49.1474 13.3894H49.3841V13.7343H49.2221V13.488L49.0547 13.7343H48.9051L48.7376 13.488V13.7343H48.5702Z" fill="#252F3E"/>
  <path d="M24.0307 17.3269C21.831 17.3269 18.5544 17.6595 16.3601 19.3094C16.142 19.4669 16.0332 19.6866 16.0332 19.9203V26.4055C16.0332 26.6203 16.2134 26.7924 16.4314 26.7924H18.4405C18.6694 26.7924 18.8387 26.6203 18.8387 26.4055V20.8292C18.8387 20.772 18.8387 20.6908 18.9096 20.6331C19.8662 19.8846 21.5485 19.6054 22.9282 19.6054C24.9537 19.6054 27.1234 20.2371 27.9166 21.4543V26.4055C27.9166 26.6203 28.0969 26.7924 28.3148 26.7924H30.3239C30.5583 26.7924 30.7221 26.6203 30.7221 26.4055V20.0363C30.7221 18.382 27.1398 17.3269 24.0307 17.3269ZM43.9088 17.3269C42.7727 17.3269 41.1339 17.4691 39.9759 18.0052C39.7689 18.0918 39.6491 18.2782 39.6491 18.4835V18.7815C39.6491 18.9963 39.8294 19.1684 40.0473 19.1684H40.2107C40.3851 19.1684 41.6409 18.8643 43.0534 18.8643C44.8811 18.8643 46.0281 19.3715 46.0281 20.2748V21.1686C44.9138 20.8078 43.4904 20.6357 42.1215 20.6357C39.8599 20.6357 37.6219 21.4965 37.6219 23.6988V23.9968C37.6219 26.0128 39.5785 26.9116 41.4995 26.9116C43.5631 26.9116 45.0419 26.104 46.1563 25.1108C46.3523 25.8892 46.8891 26.3918 47.5993 26.6852C47.7736 26.7636 47.9862 26.6257 47.9862 26.4344V21.0855C47.9862 18.7482 46.1998 17.3269 43.9088 17.3269ZM45.9902 23.4173C45.9902 25.2384 44.2561 25.9312 42.741 25.9312C41.6593 25.9312 40.4141 25.4814 40.4141 24.2063V23.9968C40.4141 22.7795 41.7503 22.1333 43.1138 22.1333C44.1302 22.1333 45.1957 22.3249 45.9902 22.7217V23.4173ZM6.49175 17.3269C4.29209 17.3269 1.01547 17.6595 -1.17883 19.3094C-1.39681 19.4669 -1.50564 19.6866 -1.50564 19.9203V26.4055C-1.50564 26.6203 -1.32538 26.7924 -1.10741 26.7924H0.901686C1.13067 26.7924 1.29991 26.6203 1.29991 26.4055V20.8292C1.29991 20.772 1.29991 20.6908 1.37082 20.6331C2.32742 19.8846 4.00965 19.6054 5.38938 19.6054C7.41486 19.6054 9.58452 20.2371 10.3777 21.4543V26.4055C10.3777 26.6203 10.558 26.7924 10.7759 26.7924H12.785C13.0195 26.7924 13.1832 26.6203 13.1832 26.4055V20.0363C13.1832 18.382 9.60092 17.3269 6.49175 17.3269ZM34.532 17.428C34.2812 17.428 34.0578 17.5711 33.9979 17.8142L31.9998 25.5419C31.9618 25.7183 32.0926 25.8857 32.2725 25.8857H34.1662C34.4061 25.8857 34.6349 25.7426 34.6839 25.5041L35.8083 20.4829C35.8463 20.235 36.2688 20.235 36.3068 20.4829L37.4311 25.5041C37.4854 25.7426 37.7033 25.8857 37.9377 25.8857H39.8422C40.0221 25.8857 40.1582 25.7137 40.1147 25.5419L38.1221 17.8142C38.0622 17.5711 37.8333 17.428 37.588 17.428H34.532ZM62.1824 17.428C61.9262 17.428 61.7028 17.5711 61.6483 17.8142L59.6448 25.5419C59.6068 25.7183 59.7375 25.8857 59.9175 25.8857H61.8113C62.0511 25.8857 62.28 25.7426 62.329 25.5041L63.4533 20.4829C63.4913 20.235 63.9138 20.235 63.9518 20.4829L65.0761 25.5041C65.1305 25.7426 65.3484 25.8857 65.5827 25.8857H67.4873C67.6672 25.8857 67.8032 25.7137 67.7598 25.5419L65.7672 17.8142C65.7072 17.5711 65.4784 17.428 65.233 17.428H62.1824ZM54.3566 17.3269C51.7048 17.3269 49.5379 18.2071 49.5379 19.9864V24.254C49.5379 25.8595 51.4436 26.9116 54.1114 26.9116C55.9336 26.9116 58.1305 26.3143 58.1305 24.7381V24.4445C58.1305 24.2397 57.9502 24.0631 57.7268 24.0631H55.829C55.6051 24.0631 55.425 24.2352 55.425 24.4445V24.5114C55.425 25.0476 54.6753 25.374 53.9434 25.374C52.8344 25.374 52.2448 24.9823 52.2448 24.1095V23.6558H57.8302C58.0645 23.6558 58.2338 23.4882 58.2338 23.2689V21.2529C58.2338 18.9401 56.483 17.3269 54.3566 17.3269ZM55.5283 21.9779H52.2448V20.4829C52.2448 19.5173 53.0873 18.864 54.2116 18.864C55.3359 18.864 55.5283 19.6871 55.5283 20.4829V21.9779Z" fill="#FF9900"/>
</svg> 