<svg xmlns="http://www.w3.org/2000/svg" viewBox="0 0 98 96" fill="none">
  <path fill-rule="evenodd" clip-rule="evenodd" d="M48.854 0C21.839 0 0 22 0 49.217C0 70.973 13.993 89.389 33.405 95.907C35.832 96.397 36.721 94.848 36.721 93.545C36.721 92.371 36.641 88.77 36.641 84.652C23.051 87.591 20.221 78.679 20.221 78.679C18.01 72.976 14.795 71.51 14.795 71.51C10.358 68.454 15.116 68.454 15.116 68.454C20.034 68.828 22.63 73.581 22.63 73.581C27.008 81.061 34.023 78.86 36.882 77.557C37.285 74.346 38.575 72.145 39.947 70.973C29.121 69.822 17.746 65.578 17.746 46.713C17.746 41.32 19.648 36.957 22.712 33.513C22.228 32.292 20.546 27.206 23.212 20.439C23.212 20.439 27.329 19.136 36.641 25.517C40.586 24.421 44.723 23.862 48.854 23.862C52.984 23.862 57.121 24.421 61.066 25.517C70.379 19.136 74.496 20.439 74.496 20.439C77.161 27.206 75.479 32.292 74.996 33.513C78.139 36.957 79.961 41.32 79.961 46.713C79.961 65.578 68.585 69.742 57.679 70.973C59.45 72.548 60.981 75.557 60.981 80.177C60.981 86.851 60.901 91.884 60.901 93.545C60.901 94.848 61.79 96.397 64.217 95.907C83.629 89.389 97.622 70.973 97.622 49.217C97.703 22 75.783 0 48.854 0Z" fill="#24292F"/>
</svg> 